{"title":"Calvin.Harris.ft.Ellie.Goulding-I.Need.Your.Love.HDTV.1080p-shad","uid":9566034,"size":101658289,"categoryP":"video","categoryS":"music_videos","magnet":"?xt=urn:btih:a219dc251e11b1620785039a5b8e2c479ce3d435&amp;dn=Calvin.Harris.ft.Ellie.Goulding-I.Need.Your.Love.HDTV.1080p-shad&amp;tr=udp%3A%2F%2Ftracker.openbittorrent.com%3A80&amp;tr=udp%3A%2F%2Fopen.demonii.com%3A1337&amp;tr=udp%3A%2F%2Ftracker.coppersurfer.tk%3A6969&amp;tr=udp%3A%2F%2Fexodus.desync.com%3A6969","seeders":5,"leechers":0,"uploader":"tlbslicer","files":2,"time":1391472909,"description":"Screenshots:\n &lt;a href=&quot;\nhttp://s30.postimg.org/5ym6aghhd/vlcsnap_2014_02_04_13h07m43s116.png&quot; rel=&quot;nofollow&quot; target=&quot;_NEW&quot;&gt;\nhttp://s30.postimg.org/5ym6aghhd/vlcsnap_2014_02_04_13h07m43s116.png&lt;/a&gt;\n &lt;a href=&quot;\nhttp://s30.postimg.org/nrcbw2o3l/vlcsnap_2014_02_04_13h08m05s73.png&quot; rel=&quot;nofollow&quot; target=&quot;_NEW&quot;&gt;\nhttp://s30.postimg.org/nrcbw2o3l/vlcsnap_2014_02_04_13h08m05s73.png&lt;/a&gt;\n\n\n\n\nCalvin.Harris.ft.Ellie.Goulding-I.Need.Your.Love.HDTV.1080p-shadowCopy\n \nFormat                                   : MPEG-4\nFormat profile                           : Base Media\nCodec ID                                 : isom\nFile size                                : 96.9 MiB\nDuration                                 : 3mn 43s\nOverall bit rate mode                    : Variable\nOverall bit rate                         : 3 642 Kbps\nWriting application                      : Lavf54.63.104\n\nVideo\nID                                       : 1\nFormat                                   : AVC\nFormat/Info                              : Advanced Video Codec\nFormat profile                           : &lt;a class=&quot;__cf_email__&quot; href=&quot;/cdn-cgi/l/email-protection&quot; data-cfemail=&quot;2068494748606c140e10&quot;&gt;[email&amp;#160;protected]&lt;/a&gt;&lt;script cf-hash='f9e31' type=&quot;text/javascript&quot;&gt;\n/* &lt;![CDATA[ */!function(){try{var t=&quot;currentScript&quot;in document?document.currentScript:function(){for(var t=document.getElementsByTagName(&quot;script&quot;),e=t.length;e--;)if(t[e].getAttribute(&quot;cf-hash&quot;))return t[e]}();if(t&amp;&amp;t.previousSibling){var e,r,n,i,c=t.previousSibling,a=c.getAttribute(&quot;data-cfemail&quot;);if(a){for(e=&quot;&quot;,r=parseInt(a.substr(0,2),16),n=2;a.length-n;n+=2)i=parseInt(a.substr(n,2),16)^r,e+=String.fromCharCode(i);e=document.createTextNode(e),c.parentNode.replaceChild(e,c)}}}catch(u){}}();/* ]]&gt; */&lt;/script&gt;\nFormat settings, CABAC                   : Yes\nFormat settings, ReFrames                : 4 frames\nCodec ID                                 : avc1\nCodec ID/Info                            : Advanced Video Coding\nDuration                                 : 3mn 43s\nBit rate                                 : 3 506 Kbps\nWidth                                    : 1 920 pixels\nHeight                                   : 1 088 pixels\nDisplay aspect ratio                     : 16:9\nFrame rate mode                          : Constant\nFrame rate                               : 25.000 fps\nColor space                              : YUV\nChroma subsampling                       : 4:2:0\nBit depth                                : 8 bits\nScan type                                : Progressive\nBits/(Pixel*Frame)                       : 0.067\nStream size                              : 93.4 MiB (96%)\nWriting library                          : x264 core 123 r2189 35cf912\nEncoding settings                        : cabac=1 / ref=3 / deblock=1:0:0 / analyse=0x3:0x133 / me=hex / subme=7 / psy=1 / psy_rd=1.00:0.00 / mixed_ref=1 / me_range=16 / chroma_me=1 / trellis=1 / 8x8dct=1 / cqm=0 / deadzone=21,11 / fast_pskip=1 / chroma_qp_offset=-2 / threads=4 / sliced_threads=0 / nr=0 / decimate=1 / interlaced=0 / bluray_compat=0 / constrained_intra=0 / bframes=3 / b_pyramid=2 / b_adapt=1 / b_bias=0 / direct=1 / weightb=1 / open_gop=0 / weightp=2 / keyint=250 / keyint_min=25 / scenecut=40 / intra_refresh=0 / rc_lookahead=40 / rc=2pass / mbtree=1 / bitrate=3506 / ratetol=1.0 / qcomp=0.60 / qpmin=10 / qpmax=51 / qpstep=4 / cplxblur=20.0 / qblur=0.5 / ip_ratio=1.40 / aq=1:1.00\n\nAudio\nID                                       : 2\nFormat                                   : AAC\nFormat/Info                              : Advanced Audio Codec\nFormat profile                           : HE-AAC / LC\nCodec ID                                 : 40\nDuration                                 : 3mn 43s\nBit rate mode                            : Variable\nBit rate                                 : 127 Kbps\nMaximum bit rate                         : 128 Kbps\nChannel(s)                               : 2 channels\nChannel positions                        : Front: L R\nSampling rate                            : 48.0 KHz / 24.0 KHz\nCompression mode                         : Lossy\nStream size                              : 3.37 MiB (3%)\nLanguage                                 : English\n\n","torrent":{"xt":"urn:btih:a219dc251e11b1620785039a5b8e2c479ce3d435","amp;dn":"Calvin.Harris.ft.Ellie.Goulding-I.Need.Your.Love.HDTV.1080p-shad","amp;tr":["udp%3A%2F%2Ftracker.openbittorrent.com%3A80","udp%3A%2F%2Fopen.demonii.com%3A1337","udp%3A%2F%2Ftracker.coppersurfer.tk%3A6969","udp%3A%2F%2Fexodus.desync.com%3A6969"],"infoHash":"a219dc251e11b1620785039a5b8e2c479ce3d435","infoHashBuffer":{"type":"Buffer","data":[162,25,220,37,30,17,177,98,7,133,3,154,91,142,44,71,156,227,212,53]},"announce":[],"urlList":[]}}